<svg width="181" height="173" viewBox="0 0 181 173" fill="none" xmlns="http://www.w3.org/2000/svg">
<path d="M99.4426 11.3318V4.76931H100.556V11.3318H99.4426ZM96.7181 8.60738V7.49374H103.281V8.60738H96.7181Z" fill="#2979FF"/>
<path d="M118.443 11.3318V4.76931H119.556V11.3318H118.443ZM115.718 8.60738V7.49374H122.281V8.60738H115.718Z" fill="#2979FF"/>
<path d="M137.443 11.3318V4.76931H138.556V11.3318H137.443ZM134.718 8.60738V7.49374H141.281V8.60738H134.718Z" fill="#2979FF"/>
<path d="M156.443 11.3318V4.76931H157.556V11.3318H156.443ZM153.718 8.60738V7.49374H160.281V8.60738H153.718Z" fill="#2979FF"/>
<path d="M175.443 11.3318V4.76931H176.556V11.3318H175.443ZM172.718 8.60738V7.49374H179.281V8.60738H172.718Z" fill="#2979FF"/>
<path d="M99.4426 29.0471V22.4846H100.556V29.0471H99.4426ZM96.7181 26.3227V25.2091H103.281V26.3227H96.7181Z" fill="#2979FF"/>
<path d="M118.443 29.0471V22.4846H119.556V29.0471H118.443ZM115.718 26.3227V25.2091H122.281V26.3227H115.718Z" fill="#2979FF"/>
<path d="M137.443 29.0471V22.4846H138.556V29.0471H137.443ZM134.718 26.3227V25.2091H141.281V26.3227H134.718Z" fill="#2979FF"/>
<path d="M156.443 29.0471V22.4846H157.556V29.0471H156.443ZM153.718 26.3227V25.2091H160.281V26.3227H153.718Z" fill="#2979FF"/>
<path d="M175.443 29.0471V22.4846H176.556V29.0471H175.443ZM172.718 26.3227V25.2091H179.281V26.3227H172.718Z" fill="#2979FF"/>
<path d="M99.4426 46.763V40.2005H100.556V46.763H99.4426ZM96.7181 44.0385V42.9249H103.281V44.0385H96.7181Z" fill="#2979FF"/>
<path d="M118.443 46.763V40.2005H119.556V46.763H118.443ZM115.718 44.0385V42.9249H122.281V44.0385H115.718Z" fill="#2979FF"/>
<path d="M137.443 46.763V40.2005H138.556V46.763H137.443ZM134.718 44.0385V42.9249H141.281V44.0385H134.718Z" fill="#2979FF"/>
<path d="M156.443 46.763V40.2005H157.556V46.763H156.443ZM153.718 44.0385V42.9249H160.281V44.0385H153.718Z" fill="#2979FF"/>
<path d="M175.443 46.763V40.2005H176.556V46.763H175.443ZM172.718 44.0385V42.9249H179.281V44.0385H172.718Z" fill="#2979FF"/>
<path d="M99.4426 64.4783V57.9158H100.556V64.4783H99.4426ZM96.7181 61.7539V60.6402H103.281V61.7539H96.7181Z" fill="#2979FF"/>
<path d="M118.443 64.4783V57.9158H119.556V64.4783H118.443ZM115.718 61.7539V60.6402H122.281V61.7539H115.718Z" fill="#2979FF"/>
<path d="M137.443 64.4783V57.9158H138.556V64.4783H137.443ZM134.718 61.7539V60.6402H141.281V61.7539H134.718Z" fill="#2979FF"/>
<path d="M156.443 64.4783V57.9158H157.556V64.4783H156.443ZM153.718 61.7539V60.6402H160.281V61.7539H153.718Z" fill="#2979FF"/>
<path d="M175.443 64.4783V57.9158H176.556V64.4783H175.443ZM172.718 61.7539V60.6402H179.281V61.7539H172.718Z" fill="#2979FF"/>
<path d="M99.4426 82.1941V75.6316H100.556V82.1941H99.4426ZM96.7181 79.4697V78.356H103.281V79.4697H96.7181Z" fill="#2979FF"/>
<path d="M118.443 82.1941V75.6316H119.556V82.1941H118.443ZM115.718 79.4697V78.356H122.281V79.4697H115.718Z" fill="#2979FF"/>
<path d="M137.443 82.1941V75.6316H138.556V82.1941H137.443ZM134.718 79.4697V78.356H141.281V79.4697H134.718Z" fill="#2979FF"/>
<path d="M156.443 82.1941V75.6316H157.556V82.1941H156.443ZM153.718 79.4697V78.356H160.281V79.4697H153.718Z" fill="#2979FF"/>
<path d="M175.443 82.1941V75.6316H176.556V82.1941H175.443ZM172.718 79.4697V78.356H179.281V79.4697H172.718Z" fill="#2979FF"/>
<path d="M4.44256 99.9094V93.3469H5.5562V99.9094H4.44256ZM1.71813 97.185V96.0714H8.28063V97.185H1.71813Z" fill="#2979FF"/>
<path d="M23.4426 99.9094V93.3469H24.5562V99.9094H23.4426ZM20.7181 97.185V96.0714H27.2806V97.185H20.7181Z" fill="#2979FF"/>
<path d="M42.4426 99.9094V93.3469H43.5562V99.9094H42.4426ZM39.7181 97.185V96.0714H46.2806V97.185H39.7181Z" fill="#2979FF"/>
<path d="M61.4426 99.9094V93.3469H62.5562V99.9094H61.4426ZM58.7181 97.185V96.0714H65.2806V97.185H58.7181Z" fill="#2979FF"/>
<path d="M80.4426 99.9094V93.3469H81.5562V99.9094H80.4426ZM77.7181 97.185V96.0714H84.2806V97.185H77.7181Z" fill="#2979FF"/>
<path d="M99.4426 99.9094V93.3469H100.556V99.9094H99.4426ZM96.7181 97.185V96.0714H103.281V97.185H96.7181Z" fill="#2979FF"/>
<path d="M118.443 99.9094V93.3469H119.556V99.9094H118.443ZM115.718 97.185V96.0714H122.281V97.185H115.718Z" fill="#2979FF"/>
<path d="M137.443 99.9094V93.3469H138.556V99.9094H137.443ZM134.718 97.185V96.0714H141.281V97.185H134.718Z" fill="#2979FF"/>
<path d="M156.443 99.9094V93.3469H157.556V99.9094H156.443ZM153.718 97.185V96.0714H160.281V97.185H153.718Z" fill="#2979FF"/>
<path d="M175.443 99.9094V93.3469H176.556V99.9094H175.443ZM172.718 97.185V96.0714H179.281V97.185H172.718Z" fill="#2979FF"/>
<path d="M4.44256 117.625V111.063H5.5562V117.625H4.44256ZM1.71813 114.901V113.787H8.28063V114.901H1.71813Z" fill="#2979FF"/>
<path d="M23.4426 117.625V111.063H24.5562V117.625H23.4426ZM20.7181 114.901V113.787H27.2806V114.901H20.7181Z" fill="#2979FF"/>
<path d="M42.4426 117.625V111.063H43.5562V117.625H42.4426ZM39.7181 114.901V113.787H46.2806V114.901H39.7181Z" fill="#2979FF"/>
<path d="M61.4426 117.625V111.063H62.5562V117.625H61.4426ZM58.7181 114.901V113.787H65.2806V114.901H58.7181Z" fill="#2979FF"/>
<path d="M80.4426 117.625V111.063H81.5562V117.625H80.4426ZM77.7181 114.901V113.787H84.2806V114.901H77.7181Z" fill="#2979FF"/>
<path d="M99.4426 117.625V111.063H100.556V117.625H99.4426ZM96.7181 114.901V113.787H103.281V114.901H96.7181Z" fill="#2979FF"/>
<path d="M118.443 117.625V111.063H119.556V117.625H118.443ZM115.718 114.901V113.787H122.281V114.901H115.718Z" fill="#2979FF"/>
<path d="M137.443 117.625V111.063H138.556V117.625H137.443ZM134.718 114.901V113.787H141.281V114.901H134.718Z" fill="#2979FF"/>
<path d="M156.443 117.625V111.063H157.556V117.625H156.443ZM153.718 114.901V113.787H160.281V114.901H153.718Z" fill="#2979FF"/>
<path d="M175.443 117.625V111.063H176.556V117.625H175.443ZM172.718 114.901V113.787H179.281V114.901H172.718Z" fill="#2979FF"/>
<path d="M4.44256 135.341V128.778H5.5562V135.341H4.44256ZM1.71813 132.616V131.503H8.28063V132.616H1.71813Z" fill="#2979FF"/>
<path d="M23.4426 135.341V128.778H24.5562V135.341H23.4426ZM20.7181 132.616V131.503H27.2806V132.616H20.7181Z" fill="#2979FF"/>
<path d="M42.4426 135.341V128.778H43.5562V135.341H42.4426ZM39.7181 132.616V131.503H46.2806V132.616H39.7181Z" fill="#2979FF"/>
<path d="M61.4426 135.341V128.778H62.5562V135.341H61.4426ZM58.7181 132.616V131.503H65.2806V132.616H58.7181Z" fill="#2979FF"/>
<path d="M80.4426 135.341V128.778H81.5562V135.341H80.4426ZM77.7181 132.616V131.503H84.2806V132.616H77.7181Z" fill="#2979FF"/>
<path d="M99.4426 135.341V128.778H100.556V135.341H99.4426ZM96.7181 132.616V131.503H103.281V132.616H96.7181Z" fill="#2979FF"/>
<path d="M118.443 135.341V128.778H119.556V135.341H118.443ZM115.718 132.616V131.503H122.281V132.616H115.718Z" fill="#2979FF"/>
<path d="M137.443 135.341V128.778H138.556V135.341H137.443ZM134.718 132.616V131.503H141.281V132.616H134.718Z" fill="#2979FF"/>
<path d="M156.443 135.341V128.778H157.556V135.341H156.443ZM153.718 132.616V131.503H160.281V132.616H153.718Z" fill="#2979FF"/>
<path d="M175.443 135.341V128.778H176.556V135.341H175.443ZM172.718 132.616V131.503H179.281V132.616H172.718Z" fill="#2979FF"/>
<path d="M4.44256 153.056V146.493H5.5562V153.056H4.44256ZM1.71813 150.331V149.218H8.28063V150.331H1.71813Z" fill="#2979FF"/>
<path d="M23.4426 153.056V146.493H24.5562V153.056H23.4426ZM20.7181 150.331V149.218H27.2806V150.331H20.7181Z" fill="#2979FF"/>
<path d="M42.4426 153.056V146.493H43.5562V153.056H42.4426ZM39.7181 150.331V149.218H46.2806V150.331H39.7181Z" fill="#2979FF"/>
<path d="M61.4426 153.056V146.493H62.5562V153.056H61.4426ZM58.7181 150.331V149.218H65.2806V150.331H58.7181Z" fill="#2979FF"/>
<path d="M80.4426 153.056V146.493H81.5562V153.056H80.4426ZM77.7181 150.331V149.218H84.2806V150.331H77.7181Z" fill="#2979FF"/>
<path d="M99.4426 153.056V146.493H100.556V153.056H99.4426ZM96.7181 150.331V149.218H103.281V150.331H96.7181Z" fill="#2979FF"/>
<path d="M118.443 153.056V146.493H119.556V153.056H118.443ZM115.718 150.331V149.218H122.281V150.331H115.718Z" fill="#2979FF"/>
<path d="M137.443 153.056V146.493H138.556V153.056H137.443ZM134.718 150.331V149.218H141.281V150.331H134.718Z" fill="#2979FF"/>
<path d="M156.443 153.056V146.493H157.556V153.056H156.443ZM153.718 150.331V149.218H160.281V150.331H153.718Z" fill="#2979FF"/>
<path d="M175.443 153.056V146.493H176.556V153.056H175.443ZM172.718 150.331V149.218H179.281V150.331H172.718Z" fill="#2979FF"/>
<path d="M4.44256 170.771V164.209H5.5562V170.771H4.44256ZM1.71813 168.047V166.933H8.28063V168.047H1.71813Z" fill="#2979FF"/>
<path d="M23.4426 170.771V164.209H24.5562V170.771H23.4426ZM20.7181 168.047V166.933H27.2806V168.047H20.7181Z" fill="#2979FF"/>
<path d="M42.4426 170.771V164.209H43.5562V170.771H42.4426ZM39.7181 168.047V166.933H46.2806V168.047H39.7181Z" fill="#2979FF"/>
<path d="M61.4426 170.771V164.209H62.5562V170.771H61.4426ZM58.7181 168.047V166.933H65.2806V168.047H58.7181Z" fill="#2979FF"/>
<path d="M80.4426 170.771V164.209H81.5562V170.771H80.4426ZM77.7181 168.047V166.933H84.2806V168.047H77.7181Z" fill="#2979FF"/>
<path d="M99.4426 170.771V164.209H100.556V170.771H99.4426ZM96.7181 168.047V166.933H103.281V168.047H96.7181Z" fill="#2979FF"/>
<path d="M118.443 170.771V164.209H119.556V170.771H118.443ZM115.718 168.047V166.933H122.281V168.047H115.718Z" fill="#2979FF"/>
<path d="M137.443 170.771V164.209H138.556V170.771H137.443ZM134.718 168.047V166.933H141.281V168.047H134.718Z" fill="#2979FF"/>
<path d="M156.443 170.771V164.209H157.556V170.771H156.443ZM153.718 168.047V166.933H160.281V168.047H153.718Z" fill="#2979FF"/>
<path d="M175.443 170.771V164.209H176.556V170.771H175.443ZM172.718 168.047V166.933H179.281V168.047H172.718Z" fill="#2979FF"/>
</svg>
