<svg width="50" height="50" viewBox="0 0 50 50" fill="none" xmlns="http://www.w3.org/2000/svg">
<rect width="50" height="50" rx="25" fill="#ECF3FF"/>
<path d="M11.1729 12H19.9709C21.5265 12 23.0184 12.618 24.1184 13.7179C25.2184 14.8179 25.8363 16.3098 25.8363 17.8654V38.3942C25.8363 37.2275 25.3728 36.1086 24.5479 35.2836C23.7229 34.4587 22.604 33.9952 21.4373 33.9952H11.1729V12Z" fill="#ECF3FF" stroke="#ECF3FF" stroke-width="2" stroke-linecap="round" stroke-linejoin="round"/>
<path d="M40.4998 12H31.7017C30.1461 12 28.6542 12.618 27.5542 13.7179C26.4543 14.8179 25.8363 16.3098 25.8363 17.8654V38.3942C25.8363 37.2275 26.2998 36.1086 27.1248 35.2836C27.9497 34.4587 29.0687 33.9952 30.2353 33.9952H40.4998V12Z" fill="#ECF3FF" stroke="#ECF3FF" stroke-width="2" stroke-linecap="round" stroke-linejoin="round"/>
<path d="M10 13.1729H18.7981C20.3537 13.1729 21.8456 13.7908 22.9455 14.8908C24.0455 15.9908 24.6635 17.4826 24.6635 19.0382V39.5671C24.6635 38.4004 24.2 37.2815 23.375 36.4565C22.55 35.6315 21.4311 35.168 20.2644 35.168H10V13.1729Z" stroke="#2979FF" stroke-width="2" stroke-linecap="round" stroke-linejoin="round"/>
<path d="M39.3269 13.1729H30.5288C28.9732 13.1729 27.4814 13.7908 26.3814 14.8908C25.2814 15.9908 24.6635 17.4826 24.6635 19.0382V39.5671C24.6635 38.4004 25.1269 37.2815 25.9519 36.4565C26.7769 35.6315 27.8958 35.168 29.0625 35.168H39.3269V13.1729Z" stroke="#2979FF" stroke-width="2" stroke-linecap="round" stroke-linejoin="round"/>
</svg>
