<svg width="50" height="50" viewBox="0 0 50 50" fill="none" xmlns="http://www.w3.org/2000/svg">
<rect width="50" height="50" rx="25" fill="#ECF3FF"/>
<path d="M25.7321 39.2033C33.7966 39.2033 40.3337 32.6661 40.3337 24.6017C40.3337 16.5372 33.7966 10 25.7321 10C17.6676 10 11.1304 16.5372 11.1304 24.6017C11.1304 32.6661 17.6676 39.2033 25.7321 39.2033Z" fill="#ECF3FF" stroke="#ECF3FF" stroke-width="2"/>
<path d="M24.6017 40.3337C32.6661 40.3337 39.2033 33.7965 39.2033 25.732C39.2033 17.6675 32.6661 11.1304 24.6017 11.1304C16.5372 11.1304 10 17.6675 10 25.732C10 33.7965 16.5372 40.3337 24.6017 40.3337Z" stroke="#2979FF" stroke-width="2"/>
<path d="M11.4605 30.8324C13.3821 31.6026 14.7656 31.6026 15.6103 30.8324C16.8777 29.6759 15.7841 26.1686 17.5596 25.2013C19.3337 24.2339 22.0387 28.5217 24.5662 27.1112C27.0938 25.6999 24.3282 21.9371 26.0819 20.4119C27.8363 18.8861 30.117 20.6069 30.5157 18.0559C30.9143 15.5058 28.6554 16.6118 28.2217 14.2011C27.9334 12.5949 27.9334 11.7502 28.2217 11.6677" stroke="#2979FF" stroke-width="2" stroke-linecap="round"/>
<path d="M28.2674 39.8591C26.8992 38.4588 26.4064 37.1578 26.7897 35.9547C27.3643 34.1499 28.3127 34.2565 28.7259 33.1409C29.1391 32.0254 27.9717 30.436 30.5621 29.078C32.2894 28.1727 34.6651 29.2211 37.6869 32.2254" stroke="#2979FF" stroke-width="2" stroke-linecap="round"/>
</svg>
