<svg width="50" height="50" viewBox="0 0 50 50" fill="none" xmlns="http://www.w3.org/2000/svg">
<rect width="50" height="50" rx="25" fill="#ECF3FF"/>
<path d="M25.8458 9L29.8927 11.9522L34.9027 11.9429L36.4411 16.7102L40.4996 19.6469L38.9426 24.408L40.4996 29.1691L36.4411 32.1059L34.9027 36.8731L29.8927 36.8639L25.8458 39.816L21.7989 36.8639L16.789 36.8731L15.2505 32.1059L11.192 29.1691L12.749 24.408L11.192 19.6469L15.2505 16.7102L16.789 11.9429L21.7989 11.9522L25.8458 9Z" fill="#ECF3FF" stroke="#ECF3FF" stroke-width="2" stroke-linecap="round" stroke-linejoin="round"/>
<path d="M24.6538 10.1929L28.7007 13.145L33.7106 13.1358L35.2491 17.903L39.3076 20.8398L37.7506 25.6009L39.3076 30.362L35.2491 33.2987L33.7106 38.066L28.7007 38.0567L24.6538 41.0089L20.6069 38.0567L15.597 38.066L14.0585 33.2987L10 30.362L11.557 25.6009L10 20.8398L14.0585 17.903L15.597 13.1358L20.6069 13.145L24.6538 10.1929Z" stroke="#2979FF" stroke-width="2" stroke-linecap="round" stroke-linejoin="round"/>
<path d="M19.2607 25.601L23.1127 29.453L30.8167 21.749" stroke="#2979FF" stroke-width="2" stroke-linecap="round" stroke-linejoin="round"/>
</svg>
